<?xml version="1.0" encoding="utf-8"?>
<!-- Generator: Adobe Illustrator 25.2.1, SVG Export Plug-In . SVG Version: 6.00 Build 0)  -->
<svg version="1.1" id="Layer_1" xmlns="http://www.w3.org/2000/svg" xmlns:xlink="http://www.w3.org/1999/xlink" x="0px" y="0px"
	 viewBox="0 0 907.09 208.82" style="enable-background:new 0 0 907.09 208.82;" xml:space="preserve">
<style type="text/css">
	.st0{fill:#033470;}
	.st1{fill:none;stroke:#AC8643;stroke-width:2;stroke-miterlimit:10;}
	.st2{fill:#AC8643;}
	.st3{fill:#FFFFFF;}
</style>
<g>
	<path class="st0" d="M332.05,87.66c0-14.46,9.88-22.68,24.46-22.68c7.01,0,12.2,1.45,12.2,1.45v7.98c0,0-4.13-5.62-11.95-5.62
		c-9.51,0-15.14,7.14-15.14,18.45c0,10.95,5.69,17.78,15.39,17.78c8.19,0,12.39-4.35,12.39-4.35l0.62,5.26c0,0-5.13,2.96-15.39,2.96
		C341.12,108.89,332.05,101.09,332.05,87.66L332.05,87.66z"/>
	<path class="st0" d="M417.62,86.15c0,12.7,0.13,17.78,0.69,21.96h-9.88c0.56-4.17,0.69-9.25,0.69-21.96V69.94h-19.64v16.21
		c0,12.7,0.13,17.78,0.69,21.96h-9.88c0.56-4.17,0.69-9.25,0.69-21.96c0-11.67-0.13-16.27-0.69-20.38h38.03
		C417.75,69.87,417.62,74.47,417.62,86.15L417.62,86.15z"/>
	<path class="st0" d="M463.48,94.43c0,8.65-6.57,14.4-16.58,14.4c-10.01,0-17.08-5.14-17.08-20.38c0-15.43,5.69-21.05,19.08-22.26
		l5.94-0.55c3.44-0.3,5.25-1.69,5.25-1.69v8.83l-11.63,0.6c-10.32,0.54-14.07,3.87-14.39,13.67c2.5-4.42,7.38-7.08,13.76-7.08
		C457.29,79.98,463.48,85.84,463.48,94.43L463.48,94.43z M454.6,94.43c0-6.53-3.13-10.83-7.69-10.83c-4.57,0-7.76,4.29-7.76,10.83
		c0,6.72,3.19,10.89,7.76,10.89C451.47,105.32,454.6,101.09,454.6,94.43L454.6,94.43z"/>
	<path class="st0" d="M502.2,72.05c-6.32-2.24-10.63-2.42-16.95-2.42h-1.06v16.51c0,12.7,0.13,17.78,0.69,21.96h-9.88
		c0.56-4.17,0.69-9.26,0.69-21.96c0-11.67-0.13-16.27-0.69-20.38h27.21V72.05L502.2,72.05z"/>
	<path class="st0" d="M547.24,86.27c0,14.15-10.13,22.62-25.08,22.62c-7.32,0-12.64-1.45-12.64-1.45v-7.86c0,0,4.57,5.68,12.39,5.68
		c9.57,0,15.39-6.65,15.76-17.36h-2.44c-6.51,0-11.32,0.3-18.39,1.39v-6.71c7.07,1.15,11.88,1.51,18.39,1.51h2.31
		c-0.87-9.56-6.25-15.48-15.26-15.48c-7.88,0-12.26,5.26-12.26,5.26l-0.62-5.99c0,0,4.82-2.9,13.76-2.9
		C538.04,64.98,547.24,73.08,547.24,86.27L547.24,86.27z"/>
	<path class="st0" d="M588.59,65.76v6.29c-4.94-1.94-8.38-2.42-12.07-2.42h-1.38v16.51c0,12.7,0.13,17.78,0.69,21.96h-9.88
		c0.56-4.17,0.69-9.26,0.69-21.96V69.63h-1.19c-4.07,0-7.38,0.55-12.26,2.42v-6.29H588.59L588.59,65.76z"/>
	<path class="st0" d="M636.19,65.76c-3.94,6.17-5.76,12.4-10.82,23.53c-5.82,12.82-9.2,19.36-18.7,19.36
		c-3.38,0-4.94-1.15-4.94-1.15v-6.9c0,0,2.56,2.84,6.5,2.84c3.07,0,5.25-1.33,6.88-3.81l-15.39-25.1c-1.94-3.15-2.81-4.36-5.94-8.77
		h11.57c1.06,4.17,1.75,5.87,5.69,12.22l8.76,13.97c0.5-1.15,1.06-2.48,1.63-3.93c4.63-11.98,6.07-15.54,6.25-22.26H636.19
		L636.19,65.76z"/>
	<path class="st0" d="M663.15,74.29h3.25l-6.19,11.55l6.19,11.55h-3.25l-8.26-11.55L663.15,74.29L663.15,74.29z M673.16,74.29h3.25
		l-6.19,11.55l6.19,11.55h-3.25l-8.26-11.55L673.16,74.29L673.16,74.29z"/>
	<path class="st0" d="M723.45,108.1h-11.2c-0.31-4.54-0.62-6.53-3.94-14.21l-8.5-19.84l-7.63,19.72c-2.82,7.26-3.51,9.8-4.07,14.33
		h-7.63c2.19-4.48,2.94-6.23,6.38-14.4l11.88-28H703l-0.06,0.12l0.12-0.12h2.32l12.76,30.54
		C720.45,101.81,721.26,103.63,723.45,108.1L723.45,108.1z"/>
	<path class="st0" d="M765.99,86.27c0,14.15-10.13,22.62-25.09,22.62c-7.32,0-12.63-1.45-12.63-1.45v-7.86c0,0,4.57,5.68,12.39,5.68
		c9.57,0,15.39-6.65,15.76-17.36h-2.44c-6.51,0-11.32,0.3-18.39,1.39v-6.71c7.07,1.15,11.88,1.51,18.39,1.51h2.31
		c-0.87-9.56-6.26-15.48-15.26-15.48c-7.88,0-12.26,5.26-12.26,5.26l-0.62-5.99c0,0,4.82-2.9,13.76-2.9
		C756.8,64.98,765.99,73.08,765.99,86.27L765.99,86.27z"/>
	<path class="st0" d="M807.34,65.76v6.29c-4.94-1.94-8.38-2.42-12.07-2.42h-1.38v16.51c0,12.7,0.13,17.78,0.69,21.96h-9.88
		c0.56-4.17,0.69-9.26,0.69-21.96V69.63h-1.19c-4.07,0-7.38,0.55-12.26,2.42v-6.29H807.34L807.34,65.76z"/>
	<path class="st0" d="M856.07,86.15c0,12.7,0.12,17.78,0.69,21.96h-9.88c0.56-4.17,0.69-9.25,0.69-21.96V73.87L826.8,108.1h-9.2
		c0.56-4.11,0.69-8.71,0.69-20.38c0-12.7-0.12-17.78-0.69-21.96h9.88c-0.56,4.18-0.69,9.25-0.69,21.96V100l20.76-34.24h9.2
		C856.2,69.87,856.07,74.47,856.07,86.15L856.07,86.15z"/>
	<path class="st0" d="M870.9,97.4h-3.25l6.19-11.55l-6.19-11.55h3.25l8.26,11.55L870.9,97.4L870.9,97.4z M880.91,97.4h-3.25
		l6.19-11.55l-6.19-11.55h3.25l8.26,11.55L880.91,97.4L880.91,97.4z"/>
	<path class="st0" d="M354.16,145.84c0,6.18,0.06,8.66,0.33,10.69h-4.81c0.28-2.03,0.34-4.5,0.34-10.69v-7.89h-9.56v7.89
		c0,6.18,0.06,8.66,0.34,10.69h-4.81c0.27-2.03,0.34-4.5,0.34-10.69c0-5.68-0.06-7.92-0.34-9.92h18.51
		C354.22,137.92,354.16,140.16,354.16,145.84L354.16,145.84z"/>
	<path class="st0" d="M375.3,153.14v3.39h-13.86c0.28-2.03,0.34-4.5,0.34-10.69c0-5.68-0.06-7.92-0.34-9.92h13.25v3.06
		c-3.07-1.09-5.18-1.18-8.25-1.18h-0.52v7.01c2.62-0.03,4.2-0.15,6.82-0.71v3.27c-2.62-0.53-4.2-0.65-6.82-0.68v7.95h1.13
		C370.22,154.64,372.66,154.47,375.3,153.14L375.3,153.14z"/>
	<path class="st0" d="M396.11,141.66c0,4.3-3.11,6.6-9.11,6.6h-1.46c0,4,0.09,6.21,0.33,8.27h-4.81c0.27-2.03,0.33-4.5,0.33-10.69
		c0-5.68-0.06-7.92-0.33-9.92h7.46C393.34,135.92,396.11,137.92,396.11,141.66L396.11,141.66z M391.76,142.01
		c0-2.74-1.4-4.21-4.35-4.21h-1.86v8.63h1.25C390.18,146.43,391.76,144.87,391.76,142.01L391.76,142.01z"/>
	<path class="st0" d="M417.74,150.49c0,3.86-3.14,6.04-9.2,6.04h-6.67c0.27-2.03,0.33-4.5,0.33-10.69c0-5.68-0.06-7.92-0.33-9.92
		h7.64c4.96,0,7.37,1.62,7.37,4.71c0,2.33-1.46,4.47-5.02,5.03C416.28,146.08,417.74,147.99,417.74,150.49L417.74,150.49z
		 M406.35,137.8v7.04H408c3.05,0,4.54-1.27,4.54-3.8c0-2.18-1.37-3.24-4.23-3.24H406.35L406.35,137.8z M413.39,150.73
		c0-2.8-2.16-4-5.45-4h-1.58v7.92h1.58C411.38,154.64,413.39,153.38,413.39,150.73L413.39,150.73z"/>
	<path class="st0" d="M438.25,149.9c0,4.3-3.11,6.6-9.1,6.6h-1.16v0.03h-4.48c0.28-2,0.34-4.24,0.34-9.92
		c0-6.18-0.06-8.66-0.34-10.69h4.81c-0.24,2.06-0.33,4.27-0.33,8.24h2.68C435.48,144.16,438.25,146.16,438.25,149.9L438.25,149.9z
		 M433.89,150.26c0-2.74-1.4-4.21-4.35-4.21h-1.55v8.63h0.94C432.31,154.68,433.89,153.11,433.89,150.26L433.89,150.26z
		 M444.98,145.84c0,6.18,0.06,8.66,0.33,10.69h-4.81c0.27-2.03,0.33-4.51,0.33-10.69c0-5.68-0.06-7.92-0.33-9.92h4.81
		C445.04,137.92,444.98,140.16,444.98,145.84L444.98,145.84z"/>
	<path class="st0" d="M471,145.84c0,6.18,0.06,8.66,0.34,10.69h-4.81c0.27-2.03,0.33-4.5,0.33-10.69v-5.98l-10.11,16.67h-4.48
		c0.27-2,0.33-4.24,0.33-9.92c0-6.18-0.06-8.66-0.33-10.69h4.81c-0.27,2.03-0.33,4.5-0.33,10.69v5.98l10.11-16.66h4.48
		C471.06,137.92,471,140.16,471,145.84L471,145.84z M455.77,130.33h3.78c0,0-0.18,3.06,2.34,3.06c2.59,0,2.38-3.06,2.38-3.06h3.74
		c0,0-0.79,4.65-6.12,4.65C456.56,134.98,455.77,130.33,455.77,130.33L455.77,130.33z"/>
	<path class="st0" d="M504.51,145.9c0,6.89-4.93,11.01-12.21,11.01c-3.56,0-6.15-0.71-6.15-0.71v-3.83c0,0,2.22,2.77,6.03,2.77
		c4.66,0,7.49-3.24,7.67-8.45h-1.19c-3.17,0-5.51,0.15-8.95,0.68v-3.27c3.44,0.56,5.79,0.74,8.95,0.74h1.13
		c-0.43-4.65-3.04-7.54-7.43-7.54c-3.84,0-5.97,2.56-5.97,2.56l-0.3-2.92c0,0,2.34-1.41,6.7-1.41
		C500.03,135.53,504.51,139.48,504.51,145.9L504.51,145.9z"/>
	<path class="st0" d="M527.88,156.53h-5.45c-0.15-2.21-0.3-3.18-1.92-6.92l-4.14-9.66l-3.72,9.6c-1.37,3.53-1.71,4.77-1.98,6.98
		h-3.72c1.07-2.18,1.43-3.03,3.11-7.01l5.79-13.63h2.07l-0.03,0.06l0.06-0.06h1.13l6.21,14.87
		C526.42,153.47,526.81,154.35,527.88,156.53L527.88,156.53z"/>
	<path class="st0" d="M545.98,153.14v3.39h-13.85c0.27-2.03,0.33-4.5,0.33-10.69c0-5.68-0.06-7.92-0.33-9.92h13.24v3.06
		c-3.07-1.09-5.17-1.18-8.25-1.18h-0.52v7.01c2.62-0.03,4.2-0.15,6.82-0.71v3.27c-2.62-0.53-4.2-0.65-6.82-0.68v7.95h1.13
		C540.89,154.64,543.33,154.47,545.98,153.14L545.98,153.14z"/>
	<path class="st0" d="M556.55,135.92c-0.27,2-0.34,4.24-0.34,9.92c0,6.18,0.06,8.66,0.34,10.69h-4.81c0.27-2.03,0.34-4.5,0.34-10.69
		c0-5.68-0.06-7.92-0.34-9.92H556.55L556.55,135.92z M570.92,156.56h-6.43l-7.86-10.87l4.23-4.27c2.38-2.42,3.44-3.51,4.38-5.51
		h4.54c0,0-2.59,2.15-4.99,4.47l-4.17,4.03l3.53,4.65C566.78,152.55,568.31,154.32,570.92,156.56L570.92,156.56z"/>
	<path class="st0" d="M590.21,135.92v3.06c-2.41-0.94-4.08-1.18-5.88-1.18h-0.67v8.04c0,6.18,0.06,8.66,0.33,10.69h-4.81
		c0.28-2.03,0.34-4.5,0.34-10.69v-8.04h-0.58c-1.98,0-3.59,0.26-5.97,1.18v-3.06H590.21L590.21,135.92z"/>
	<path class="st0" d="M610.26,141.66c0,4.3-3.1,6.6-9.11,6.6h-1.46c0,4,0.09,6.21,0.34,8.27h-4.81c0.27-2.03,0.34-4.5,0.34-10.69
		c0-5.68-0.06-7.92-0.34-9.92h7.46C607.49,135.92,610.26,137.92,610.26,141.66L610.26,141.66z M605.9,142.01
		c0-2.74-1.4-4.21-4.35-4.21h-1.86v8.63h1.25C604.32,146.43,605.9,144.87,605.9,142.01L605.9,142.01z"/>
	<path class="st0" d="M614.53,146.46c0-6.74,4.32-10.93,11.54-10.93c6.61,0,10.69,4.01,10.69,10.45c0,6.74-4.32,10.92-11.54,10.92
		C618.61,156.91,614.53,152.91,614.53,146.46L614.53,146.46z M632.1,146.37c0-5.59-2.5-8.98-6.58-8.98c-3.93,0-6.33,3.3-6.33,8.69
		c0,5.59,2.49,8.98,6.58,8.98C629.7,155.06,632.1,151.79,632.1,146.37L632.1,146.37z"/>
	<path class="st0" d="M656.9,135.92v3.06c-2.4-0.94-4.08-1.18-5.87-1.18h-0.67v8.04c0,6.18,0.06,8.66,0.34,10.69h-4.81
		c0.27-2.03,0.34-4.5,0.34-10.69v-8.04h-0.58c-1.98,0-3.59,0.26-5.97,1.18v-3.06H656.9L656.9,135.92z"/>
	<path class="st0" d="M675.76,153.14v3.39h-13.86c0.28-2.03,0.34-4.5,0.34-10.69c0-5.68-0.06-7.92-0.34-9.92h13.25v3.06
		c-3.07-1.09-5.17-1.18-8.25-1.18h-0.52v7.01c2.62-0.03,4.2-0.15,6.82-0.71v3.27c-2.62-0.53-4.2-0.65-6.82-0.68v7.95h1.13
		C670.68,154.64,673.11,154.47,675.76,153.14L675.76,153.14z"/>
	<path class="st0" d="M698.64,156.53h-5.88c-0.58-1.97-1.22-2.94-3.14-5.8l-1.67-2.53l-1.55,2.27c-1.83,2.68-2.56,4.01-3.11,6.07
		h-4.17c0,0,1.46-1.83,3.32-4.3l4.32-5.8l-4.2-6.33c-1.67-2.5-3.2-4.18-3.2-4.18h5.73c0.58,1.97,1.25,2.97,3.13,5.8l1.34,2
		l1.19-1.74c1.83-2.68,2.56-4,3.11-6.06h4.17c0,0-1.46,1.83-3.32,4.3l-3.96,5.3l4.54,6.83
		C697.03,154.94,698.64,156.53,698.64,156.53L698.64,156.53z"/>
	<path class="st0" d="M721.67,145.84c0,6.18,0.06,8.66,0.34,10.69h-4.81c0.27-1.94,0.34-4.27,0.34-9.81h-9.87
		c0,5.54,0.06,7.86,0.33,9.81h-4.81c0.28-2.03,0.33-4.5,0.33-10.69c0-5.68-0.06-7.92-0.33-9.92H708c-0.24,1.85-0.33,3.92-0.33,8.77
		h9.87c0-4.86-0.09-6.92-0.34-8.77h4.81C721.74,137.92,721.67,140.16,721.67,145.84L721.67,145.84z"/>
	<path class="st0" d="M747.69,145.84c0,6.18,0.06,8.66,0.34,10.69h-4.81c0.27-2.03,0.34-4.5,0.34-10.69v-5.98l-10.11,16.67h-4.48
		c0.27-2,0.34-4.24,0.34-9.92c0-6.18-0.06-8.66-0.34-10.69h4.81c-0.27,2.03-0.34,4.5-0.34,10.69v5.98l10.11-16.66h4.48
		C747.75,137.92,747.69,140.16,747.69,145.84L747.69,145.84z"/>
	<path class="st0" d="M770.15,145.84c0,6.18,0.06,8.66,0.34,10.69h-4.81c0.24-1.83,0.34-4.03,0.34-9.01c-1,0.44-3.14,1.24-5.94,1.24
		c-4.26,0-5.94-2.15-5.94-5.56c0-3.03-0.06-5.27-0.34-7.27h4.81c-0.27,2.18-0.33,4.65-0.33,6.89c0,2.41,0.97,3.59,3.32,3.59
		c1.83,0,3.53-0.47,4.42-0.76c0-5.54-0.06-7.74-0.34-9.72h4.81C770.21,137.92,770.15,140.16,770.15,145.84L770.15,145.84z"/>
	<path class="st0" d="M791.29,153.14v3.39h-13.86c0.27-2.03,0.34-4.5,0.34-10.69c0-5.68-0.06-7.92-0.34-9.92h13.25v3.06
		c-3.07-1.09-5.18-1.18-8.25-1.18h-0.52v7.01c2.62-0.03,4.2-0.15,6.82-0.71v3.27c-2.62-0.53-4.2-0.65-6.82-0.68v7.95h1.13
		C786.21,154.64,788.64,154.47,791.29,153.14L791.29,153.14z"/>
	<path class="st0" d="M795.56,146.58c0-7.04,4.81-11.04,11.91-11.04c3.41,0,5.94,0.71,5.94,0.71v3.89c0,0-2.01-2.74-5.82-2.74
		c-4.63,0-7.37,3.47-7.37,8.98c0,5.33,2.77,8.66,7.49,8.66c3.99,0,6.03-2.12,6.03-2.12l0.3,2.56c0,0-2.49,1.44-7.49,1.44
		C799.98,156.91,795.56,153.11,795.56,146.58L795.56,146.58z"/>
	<path class="st0" d="M823.86,135.92c-0.27,2-0.34,4.24-0.34,9.92c0,6.18,0.06,8.66,0.34,10.69h-4.81c0.27-2.03,0.34-4.5,0.34-10.69
		c0-5.68-0.06-7.92-0.34-9.92H823.86L823.86,135.92z M838.24,156.56h-6.42l-7.86-10.87l4.23-4.27c2.38-2.42,3.44-3.51,4.38-5.51
		h4.54c0,0-2.59,2.15-4.99,4.47l-4.17,4.03l3.53,4.65C834.09,152.55,835.62,154.32,838.24,156.56L838.24,156.56z"/>
	<path class="st0" d="M860.97,145.84c0,6.18,0.06,8.66,0.33,10.69h-4.81c0.28-2.03,0.34-4.5,0.34-10.69v-5.98l-10.11,16.67h-4.48
		c0.27-2,0.34-4.24,0.34-9.92c0-6.18-0.06-8.66-0.34-10.69h4.81c-0.27,2.03-0.34,4.5-0.34,10.69v5.98l10.11-16.66h4.48
		C861.03,137.92,860.97,140.16,860.97,145.84L860.97,145.84z"/>
	<path class="st0" d="M886.99,145.84c0,6.18,0.06,8.66,0.33,10.69h-4.81c0.28-2.03,0.34-4.5,0.34-10.69v-5.98l-10.11,16.67h-4.48
		c0.27-2,0.34-4.24,0.34-9.92c0-6.18-0.06-8.66-0.34-10.69h4.81c-0.27,2.03-0.34,4.5-0.34,10.69v5.98l10.11-16.66h4.48
		C887.05,137.92,886.99,140.16,886.99,145.84L886.99,145.84z M871.76,130.33h3.78c0,0-0.18,3.06,2.34,3.06
		c2.59,0,2.38-3.06,2.38-3.06H884c0,0-0.79,4.65-6.12,4.65C872.55,134.98,871.76,130.33,871.76,130.33L871.76,130.33z"/>
</g>
<path class="st1" d="M170.84,206.86"/>
<path class="st1" d="M170.84,206.86"/>
<g>
	<g>
		<path class="st2" d="M43.28,197.4V80.83c-7.9,3.32-22.64,6.16-31.33,6.87V62.35c16.58-2.84,33.17-11.14,42.91-21.09h26.85V197.4
			H43.28z"/>
		<path class="st3" d="M83.71,199.39H41.29V83.72c-8.35,2.91-21.04,5.3-29.17,5.97l-2.16,0.18V60.67l1.66-0.28
			c15.87-2.72,32.29-10.77,41.82-20.52l0.59-0.6h29.68V199.39z M45.27,195.41h34.45V43.25H55.69c-9.95,9.84-25.73,17.68-41.75,20.76
			v21.5c8.87-0.96,21.7-3.63,28.56-6.52l2.77-1.16V195.41z"/>
	</g>
</g>
<g>
	<g>
		<path class="st2" d="M69.08,78.69c2.37-19.19,17.38-42.89,60.81-42.89c40.02,0,57.92,20.38,57.92,42.41
			c0,18.72-12.11,27.72-21.59,31.75v0.71c11.32,3.55,28.17,13.27,28.17,37.44c0,22.51-15.01,49.28-64.76,49.28
			c-46.6,0-62.39-25.12-63.97-45.73h36.59c2.37,10.66,10.53,19.66,28.43,19.66c17.38,0,26.06-9.95,26.06-23.69
			c0-14.45-8.42-23.22-28.43-23.22h-15.8V98.36h13.95c17.11,0,24.22-5.21,24.22-18.24c0-10.66-7.11-18.01-22.11-18.01
			c-17.64,0-21.85,9-23.69,16.59H69.08z"/>
		<path class="st3" d="M129.63,199.39c-45.94,0-64.2-24.57-65.96-47.57l-0.16-2.15h40.34l0.35,1.56c1.84,8.26,7.92,18.1,26.49,18.1
			c15.07,0,24.07-8.11,24.07-21.7c0-14.28-8.65-21.23-26.44-21.23h-17.79V96.37h15.95c18.51,0,22.23-6.22,22.23-16.25
			c0-10.33-7.15-16.01-20.12-16.01c-15.95,0-19.95,7.61-21.76,15.06l-0.37,1.52H66.83l0.28-2.24c1.29-10.47,9.64-44.63,62.79-44.63
			c44.22,0,59.91,23.92,59.91,44.4c0,18.11-10.84,27.41-19.26,31.9c9.91,4.01,25.85,14.18,25.85,38
			C196.39,172.91,178.85,199.39,129.63,199.39z M67.87,153.66c1.58,12.15,10.71,41.74,61.76,41.74c58.24,0,62.77-36.2,62.77-47.29
			c0-23.6-16.77-32.4-26.77-35.53l-1.4-0.44v-3.49l1.21-0.52c9.29-3.95,20.37-12.35,20.37-29.91c0-18.64-14.65-40.42-55.92-40.42
			c-46.51,0-56.4,27.38-58.49,38.9h31.95c2.15-7.53,7.42-16.59,25.23-16.59c15.1,0,24.11,7.48,24.11,20
			c0,14.19-7.84,20.24-26.21,20.24h-11.96v22.08h13.8c25.15,0,30.42,13.71,30.42,25.21c0,15.84-10.75,25.69-28.06,25.69
			c-20.92,0-27.76-11.67-29.99-19.66H67.87z"/>
	</g>
</g>
<g>
	<path class="st2" d="M248.79,66.6c-17.89,0-29.51,4.24-37.35,9.89c1.57-7.63,5.02-25.43,6.28-35.31h82.87l6.28-33.05H181.3
		c-3.45,25.43-12.24,80.8-17.89,104.25l38.69,4.59c5.94-15.32,20.81-26.19,38.24-26.19c22.65,0,41.01,18.36,41.01,41.01
		s-18.36,41.01-41.01,41.01c-17.86,0-33.04-11.42-38.67-27.35h-42.34c4.71,33.05,34.53,51.98,75.34,51.98
		c55.87,0,77.85-33.05,77.85-68.93C312.52,93.15,289.6,66.6,248.79,66.6z"/>
	<path class="st3" d="M234.67,199.39c-42.97,0-72.59-20.57-77.31-53.69l-0.32-2.27h46.05l0.47,1.33
		c5.5,15.57,20.28,26.02,36.79,26.02c21.51,0,39.01-17.5,39.01-39.01s-17.5-39.01-39.01-39.01c-16.23,0-30.51,9.78-36.38,24.92
		l-0.56,1.44l-42.46-5.04l0.53-2.18c5.68-23.59,14.51-79.42,17.85-104.05l0.23-1.72h129.71l-7.04,37.04h-82.78
		c-1.19,8.56-3.6,21.34-5.14,29.12c8.99-5.1,20.56-7.68,34.48-7.68c39.92,0,65.72,25.07,65.72,63.86c0,19.87-6.41,36.92-18.54,49.32
		C281.93,192.12,261.31,199.39,234.67,199.39z M161.67,147.41c5.44,29.67,33.17,48,72.99,48c47.5,0,75.85-25.02,75.85-66.94
		c0-36.37-24.23-59.88-61.73-59.88c-15.25,0-27.42,3.2-36.19,9.51l-4.15,2.99l1.03-5.01c1.88-9.11,5.09-26,6.25-35.16l0.22-1.74
		h82.98l5.52-29.07H183.04c-3.41,24.72-11.59,76.3-17.18,100.54l34.97,4.15c6.8-15.86,22.14-26.03,39.51-26.03
		c23.71,0,43,19.29,43,43c0,23.71-19.29,43-43,43c-17.72,0-33.64-10.93-40.05-27.35H161.67z"/>
</g>
<g>
	<path class="st0" d="M246.02,134.72c0.11,0.9,0.14,1.9,0.14,4.46c0,2.78-0.02,3.89-0.14,4.8h2c-0.11-0.91-0.14-2.02-0.14-4.8
		c0-2.55,0.02-3.56,0.14-4.46H246.02L246.02,134.72z"/>
	<path class="st0" d="M249.86,141.51c0,1.65,1.25,2.63,3.39,2.63c2.2,0,3.49-0.99,3.49-2.71c0-1.12-0.65-1.93-1.82-2.3
		c0.98-0.36,1.54-1.1,1.54-2.13c0-1.53-1.16-2.45-3.12-2.45c-2.02,0-3.22,0.92-3.22,2.53c0,1,0.55,1.72,1.55,2.07
		C250.51,139.53,249.86,140.35,249.86,141.51L249.86,141.51z M253.26,135.4c0.85,0,1.34,0.63,1.34,1.69c0,1.02-0.49,1.64-1.28,1.64
		c-0.84,0-1.34-0.63-1.34-1.7C251.98,136.01,252.48,135.4,253.26,135.4L253.26,135.4z M253.26,139.62c0.97,0,1.56,0.7,1.56,1.88
		c0,1.12-0.58,1.8-1.5,1.8c-0.95,0-1.55-0.7-1.55-1.88C251.78,140.3,252.35,139.62,253.26,139.62L253.26,139.62z"/>
	<path class="st0" d="M258.04,141.51c0,1.65,1.25,2.63,3.39,2.63c2.2,0,3.49-0.99,3.49-2.71c0-1.12-0.65-1.93-1.82-2.3
		c0.98-0.36,1.54-1.1,1.54-2.13c0-1.53-1.16-2.45-3.12-2.45c-2.02,0-3.22,0.92-3.22,2.53c0,1,0.55,1.72,1.55,2.07
		C258.7,139.53,258.04,140.35,258.04,141.51L258.04,141.51z M261.45,135.4c0.85,0,1.34,0.63,1.34,1.69c0,1.02-0.49,1.64-1.28,1.64
		c-0.84,0-1.34-0.63-1.34-1.7C260.17,136.01,260.66,135.4,261.45,135.4L261.45,135.4z M261.45,139.62c0.97,0,1.56,0.7,1.56,1.88
		c0,1.12-0.58,1.8-1.5,1.8c-0.95,0-1.55-0.7-1.55-1.88C259.96,140.3,260.54,139.62,261.45,139.62L261.45,139.62z"/>
	<path class="st0" d="M270.29,138.01c-1.02,0-1.71,0.48-2.13,0.93c0.06-2.09,0.66-3.52,2.15-3.52c1.18,0,1.78,1.11,1.78,1.11v-1.64
		c0,0-0.66-0.33-1.88-0.33c-2.34,0-4,1.79-4,4.96c0,3.2,1.31,4.63,3.52,4.63c2.07,0,3.27-1.27,3.27-3.25
		C273.01,139.04,272,138.01,270.29,138.01L270.29,138.01z M269.83,143.24c-0.95,0-1.55-0.78-1.65-3.23
		c0.32-0.37,0.84-0.79,1.52-0.79c0.98,0,1.48,0.63,1.48,1.92C271.18,142.44,270.67,143.24,269.83,143.24L269.83,143.24z"/>
	<path class="st0" d="M263.77,107.95c-13.1-13.1-34.35-13.1-47.45,0c-6.36,6.36-9.62,14.63-9.81,22.96h0c0,0.03,0,0.06,0,0.09
		c-0.01,0.36-0.02,0.72-0.01,1.08c0-0.15,0.01-0.29,0.02-0.44c-0.02,2.85,0.3,5.74,1.05,8.63c4.66,17.94,22.97,28.7,40.91,24.05
		c8.45-2.19,15.3-7.43,19.7-14.22h-0.06c-4.03,5.78-10.04,10.21-17.4,12.12c-16.38,4.25-33.11-5.58-37.36-21.96
		c-0.81-3.13-1.09-6.26-0.92-9.33h1.39c-0.07,2.5,0.19,5.06,0.85,7.6c3.81,14.68,18.81,23.5,33.49,19.69
		c5.36-1.39,9.9-4.3,13.36-8.12h-0.04c-4.4,4.17-10.33,6.73-16.86,6.73c-7.04,0-13.39-2.98-17.86-7.73
		c-0.07-0.08-0.15-0.16-0.22-0.24c-0.08-0.08-0.15-0.17-0.22-0.25c-2.55-2.83-4.48-6.28-5.5-10.22c-0.65-2.5-0.85-5.01-0.72-7.46
		h1.57c-0.11,2.08,0.07,4.22,0.63,6.34c2.92,11.27,14.43,18.03,25.69,15.1c1.96-0.51,3.77-1.29,5.42-2.28H253
		c-2.22,0.96-4.67,1.51-7.24,1.51c-10.09,0-18.28-8.18-18.28-18.28c0-0.82,0.08-1.61,0.19-2.4h4.77h19.74h0h6.44l0,0h9.05h5.89l0,0
		C273.38,122.6,270.13,114.32,263.77,107.95L263.77,107.95z M217.14,129.98c0.64-3.38,2.23-6.61,4.85-9.23
		c6.95-6.95,18.22-6.95,25.18,0c1.81,1.81,3.13,3.91,3.99,6.15L217.14,129.98L217.14,129.98z M252.59,118
		c-8.23-8.23-21.57-8.23-29.8,0c-3.38,3.38-5.31,7.61-5.91,12.01l-5.46,0.49c0.67-5.2,2.98-10.24,6.98-14.24
		c9.62-9.62,25.21-9.62,34.83,0c2.88,2.87,4.86,6.29,6.01,9.91l-1.58,0.14C256.67,123.27,255,120.41,252.59,118L252.59,118z
		 M265.65,125.59c-1.19-4.61-3.56-8.97-7.17-12.58c-10.8-10.8-28.32-10.8-39.12,0c-4.87,4.87-7.5,11.12-7.97,17.49l-3.15,0.28
		l-1.7,0.13c0.39-7.28,3.34-14.45,8.91-20.01c11.97-11.97,31.37-11.97,43.34,0c4.17,4.17,6.86,9.24,8.12,14.58L265.65,125.59
		L265.65,125.59z"/>
</g>
</svg>
